NotoSerifEthiopic-Light.ufo
<glyph name="ra-ethiopic" format="2">
  <advance width="507"/>
  <unicode hex="1228"/>
  <note>
uni1228
</note>
  <anchor x="256" y="716" name="top"/>
  <outline>
    <contour>
      <point x="438" y="-34" type="curve" smooth="yes"/>
      <point x="444" y="-34"/>
      <point x="448" y="-33"/>
      <point x="452" y="-31" type="curve"/>
      <point x="443" y="-21"/>
      <point x="439" y="-4"/>
      <point x="439" y="12" type="curve" smooth="yes"/>
      <point x="439" y="28"/>
      <point x="443" y="45"/>
      <point x="452" y="55" type="curve"/>
      <point x="448" y="57"/>
      <point x="444" y="58"/>
      <point x="438" y="58" type="curve" smooth="yes"/>
      <point x="418" y="58"/>
      <point x="404" y="44"/>
      <point x="401" y="25" type="curve"/>
      <point x="298" y="25" type="line"/>
      <point x="298" y="0" type="line"/>
      <point x="401" y="0" type="line"/>
      <point x="404" y="-20"/>
      <point x="418" y="-34"/>
    </contour>
    <component base="nose"/>
  </outline>
</glyph>
<glyph name="ree-ethiopic" format="2">
  <advance width="590"/>
  <unicode hex="122C"/>
  <note>
uni122C
</note>
  <anchor x="310" y="716" name="top"/>
  <outline>
    <contour>
      <point x="295" y="0" type="line"/>
      <point x="408" y="0" type="line"/>
      <point x="408" y="7" type="line"/>
      <point x="370" y="25" type="line"/>
      <point x="295" y="25" type="line"/>
    </contour>
    <component base="nose"/>
    <component base="ballbig" xOffset="255" yOffset="-171"/>
  </outline>
</glyph>
<glyph name="saa-ethiopic" format="2">
  <advance width="567"/>
  <unicode hex="1233"/>
  <note>
uni1233
</note>
  <anchor x="281" y="762" name="top"/>
  <outline>
    <contour>
      <point x="257" y="591" type="line"/>
      <point x="285" y="591" type="line"/>
      <point x="285" y="695" type="line" smooth="yes"/>
      <point x="285" y="733"/>
      <point x="278" y="753"/>
      <point x="264" y="762" type="curve"/>
      <point x="214" y="758" type="line"/>
      <point x="214" y="738" type="line"/>
      <point x="244" y="738"/>
      <point x="257" y="728"/>
      <point x="257" y="686" type="curve" smooth="yes"/>
    </contour>
    <component base="baashort"/>
  </outline>
</glyph>
<glyph name="sha-ethiopic" format="2">
  <advance width="585"/>
  <unicode hex="1238"/>
  <note>
uni1238
</note>
  <anchor x="294" y="794" name="top"/>
  <outline>
    <contour>
      <point x="280" y="591" type="line"/>
      <point x="308" y="591" type="line"/>
      <point x="308" y="751" type="line"/>
      <point x="280" y="751" type="line"/>
    </contour>
    <component base="shortnarch" xOffset="-8"/>
    <component base="bonemiddle" xOffset="44" yOffset="-12"/>
  </outline>
</glyph>
<glyph name="shaa-ethiopic" format="2">
  <advance width="572"/>
  <unicode hex="123B"/>
  <note>
uni123B
</note>
  <anchor x="283" y="794" name="top"/>
  <outline>
    <contour>
      <point x="272" y="591" type="line"/>
      <point x="300" y="591" type="line"/>
      <point x="300" y="751" type="line"/>
      <point x="272" y="751" type="line"/>
    </contour>
    <component base="bonemiddle" xOffset="34" yOffset="-12"/>
    <component base="baashort" xOffset="9"/>
  </outline>
</glyph>
<glyph name="qhwee-ethiopic" format="2">
  <advance width="605"/>
  <unicode hex="125C"/>
  <note>
uni125C
</note>
  <anchor x="302" y="794" name="top"/>
  <outline>
    <contour>
      <point x="225" y="0" type="line"/>
      <point x="401" y="0" type="line"/>
      <point x="370" y="25" type="line"/>
      <point x="225" y="25" type="line"/>
    </contour>
    <component base="qhee-ethiopic" xOffset="10"/>
    <component base="leftsingleflag" xOffset="45" yOffset="-362"/>
  </outline>
</glyph>
<glyph name="wu-ethiopic" format="2">
  <advance width="758"/>
  <unicode hex="12C9"/>
  <note>
uni12C9
</note>
  <anchor x="387" y="714" name="top"/>
  <outline>
    <contour>
      <point x="354" y="213" type="line"/>
      <point x="597" y="213" type="line"/>
      <point x="597" y="238" type="line"/>
      <point x="354" y="238" type="line"/>
    </contour>
    <component base="wa-ethiopic"/>
    <component base="rightdoubleflag" xOffset="536" yOffset="213"/>
  </outline>
</glyph>
<glyph name="za-ethiopic" format="2">
  <advance width="607"/>
  <unicode hex="12D8"/>
  <note>
uni12D8
</note>
  <anchor x="303" y="716" name="top"/>
  <outline>
    <contour>
      <point x="138" y="366" type="line"/>
      <point x="470" y="366" type="line"/>
      <point x="470" y="391" type="line"/>
      <point x="138" y="391" type="line"/>
    </contour>
    <component base="stem1" xOffset="333"/>
    <component base="stem1"/>
  </outline>
</glyph>
<glyph name="dee-ethiopic" format="2">
  <advance width="639"/>
  <unicode hex="12F4"/>
  <note>
uni12F4
</note>
  <anchor x="319" y="665" name="top"/>
  <outline>
    <contour>
      <point x="165" y="182" type="line"/>
      <point x="451" y="182" type="line"/>
      <point x="496" y="207" type="line"/>
      <point x="165" y="207" type="line"/>
    </contour>
    <component base="ballsmall" xOffset="340" yOffset="-199"/>
    <component base="leftsingleflag" yOffset="-180"/>
    <component base="upperloop" xOffset="2" yOffset="-60"/>
  </outline>
</glyph>
<glyph name="ddi-ethiopic" format="2">
  <advance width="838"/>
  <unicode hex="12FA"/>
  <note>
uni12FA
</note>
  <anchor x="414" y="830" name="top"/>
  <outline>
    <contour>
      <point x="316" y="714" type="line"/>
      <point x="344" y="714" type="line"/>
      <point x="344" y="830" type="line"/>
      <point x="316" y="830" type="line"/>
    </contour>
    <component base="di-ethiopic"/>
  </outline>
</glyph>
<glyph name="ddee-ethiopic" format="2">
  <advance width="639"/>
  <unicode hex="12FC"/>
  <note>
uni12FC
</note>
  <anchor x="319" y="773" name="top"/>
  <outline>
    <contour>
      <point x="310" y="653" type="line"/>
      <point x="337" y="653" type="line"/>
      <point x="337" y="773" type="line"/>
      <point x="310" y="773" type="line"/>
    </contour>
    <component base="dee-ethiopic"/>
  </outline>
</glyph>
<glyph name="ddo-ethiopic" format="2">
  <advance width="649"/>
  <unicode hex="12FE"/>
  <note>
uni12FE
</note>
  <anchor x="327" y="830" name="top"/>
  <outline>
    <contour>
      <point x="342" y="714" type="line"/>
      <point x="370" y="714" type="line"/>
      <point x="370" y="830" type="line"/>
      <point x="342" y="830" type="line"/>
    </contour>
    <component base="do-ethiopic"/>
  </outline>
</glyph>
<glyph name="pho-ethiopic" format="2">
  <advance width="561"/>
  <unicode hex="1336"/>
  <note>
uni1336
</note>
  <anchor x="300" y="818" name="top"/>
  <outline>
    <contour>
      <point x="258" y="714" type="line"/>
      <point x="285" y="714" type="line"/>
      <point x="285" y="818" type="line"/>
      <point x="258" y="818" type="line"/>
    </contour>
    <component base="tso-ethiopic"/>
  </outline>
</glyph>
<glyph name="comma-ethiopic" format="2">
  <advance width="386"/>
  <unicode hex="1363"/>
  <note>
uni1363
</note>
  <outline>
    <contour>
      <point x="98" y="546" type="line"/>
      <point x="288" y="546" type="line"/>
      <point x="288" y="574" type="line"/>
      <point x="98" y="574" type="line"/>
    </contour>
    <component base="yizet-ethiopic" xOffset="59" yOffset="107"/>
    <component base="yizet-ethiopic" xOffset="59" yOffset="315"/>
  </outline>
</glyph>
<glyph name="semicolon-ethiopic" format="2">
  <advance width="386"/>
  <unicode hex="1364"/>
  <note>
uni1364
</note>
  <outline>
    <contour>
      <point x="98" y="634" type="line"/>
      <point x="288" y="634" type="line"/>
      <point x="288" y="662" type="line"/>
      <point x="98" y="662" type="line"/>
    </contour>
    <contour>
      <point x="98" y="71" type="line"/>
      <point x="288" y="71" type="line"/>
      <point x="288" y="99" type="line"/>
      <point x="98" y="99" type="line"/>
    </contour>
    <component base="yizet-ethiopic" xOffset="59" yOffset="195"/>
    <component base="yizet-ethiopic" xOffset="59" yOffset="403"/>
  </outline>
</glyph>
<glyph name="colon-ethiopic" format="2">
  <advance width="386"/>
  <unicode hex="1365"/>
  <note>
uni1365
</note>
  <outline>
    <contour>
      <point x="98" y="354" type="line"/>
      <point x="288" y="354" type="line"/>
      <point x="288" y="382" type="line"/>
      <point x="98" y="382" type="line"/>
    </contour>
    <component base="yizet-ethiopic" xOffset="59" yOffset="106"/>
    <component base="yizet-ethiopic" xOffset="59" yOffset="495"/>
  </outline>
</glyph>
<glyph name="prefacecolon-ethiopic" format="2">
  <advance width="578"/>
  <unicode hex="1366"/>
  <note>
uni1366
</note>
  <outline>
    <contour>
      <point x="298" y="354" type="line"/>
      <point x="489" y="354" type="line"/>
      <point x="489" y="382" type="line"/>
      <point x="298" y="382" type="line"/>
    </contour>
    <component base="yizet-ethiopic" xOffset="-10" yOffset="150"/>
    <component base="yizet-ethiopic" xOffset="-10" yOffset="451"/>
  </outline>
</glyph>
<glyph name="deretHidet-ethiopic" format="2">
  <advance width="929"/>
  <unicode hex="1398"/>
  <note>
uni1398
</note>
  <outline>
    <contour>
      <point x="241" y="0" type="line"/>
      <point x="878" y="0" type="line"/>
      <point x="878" y="25" type="line"/>
      <point x="241" y="25" type="line"/>
    </contour>
    <component base="deret-ethiopic"/>
  </outline>
</glyph>
<glyph name="moa-ethiopic" format="2">
  <advance width="836"/>
  <unicode hex="2D81"/>
  <note>
uni2D81
</note>
  <anchor x="423" y="714" name="top"/>
  <outline>
    <contour>
      <point x="207" y="124" type="line"/>
      <point x="364" y="124" type="line"/>
      <point x="364" y="149" type="line"/>
      <point x="207" y="149" type="line"/>
    </contour>
    <component base="mo-ethiopic" xOffset="-5"/>
    <component base="leftdoubleflag" xOffset="1" yOffset="124"/>
  </outline>
</glyph>
<glyph name="poa-ethiopic" format="2">
  <advance width="719"/>
  <unicode hex="2D92"/>
  <note>
uni2D92
</note>
  <anchor x="359" y="714" name="top"/>
  <outline>
    <contour>
      <point x="195" y="367" type="line"/>
      <point x="301" y="367" type="line"/>
      <point x="321" y="392" type="line"/>
      <point x="195" y="392" type="line"/>
    </contour>
    <component base="po-ethiopic" xOffset="107"/>
    <component base="leftdoubleflag" yOffset="367"/>
  </outline>
</glyph>
<glyph name="tthi-ethiopic" format="2">
  <advance width="701"/>
  <unicode hex="AB02"/>
  <note>
uniAB02
</note>
  <anchor x="385" y="762" name="top"/>
  <outline>
    <contour>
      <point x="114" y="302" type="line"/>
      <point x="463" y="302" type="line"/>
      <point x="463" y="327" type="line"/>
      <point x="114" y="327" type="line"/>
    </contour>
    <component base="si-ethiopic"/>
  </outline>
</glyph>
<glyph name="tthaa-ethiopic" format="2">
  <advance width="567"/>
  <unicode hex="AB03"/>
  <note>
uniAB03
</note>
  <anchor x="281" y="762" name="top"/>
  <outline>
    <contour>
      <point x="84" y="392" type="line"/>
      <point x="431" y="392" type="line"/>
      <point x="431" y="417" type="line"/>
      <point x="84" y="417" type="line"/>
    </contour>
    <component base="saa-ethiopic"/>
  </outline>
</glyph>
<glyph name="tthee-ethiopic" format="2">
  <advance width="757"/>
  <unicode hex="AB04"/>
  <note>
uniAB04
</note>
  <anchor x="413" y="762" name="top"/>
  <outline>
    <contour>
      <point x="110" y="300" type="line"/>
      <point x="463" y="300" type="line"/>
      <point x="463" y="325" type="line"/>
      <point x="110" y="325" type="line"/>
    </contour>
    <component base="see-ethiopic"/>
  </outline>
</glyph>
<glyph name="tthe-ethiopic" format="2">
  <advance width="597"/>
  <unicode hex="AB05"/>
  <note>
uniAB05
</note>
  <anchor x="311" y="762" name="top"/>
  <outline>
    <contour>
      <point x="108" y="303" type="line"/>
      <point x="461" y="303" type="line"/>
      <point x="461" y="328" type="line"/>
      <point x="108" y="328" type="line"/>
    </contour>
    <component base="se-ethiopic"/>
  </outline>
</glyph>
<glyph name="ttho-ethiopic" format="2">
  <advance width="564"/>
  <unicode hex="AB06"/>
  <note>
uniAB06
</note>
  <anchor x="312" y="762" name="top"/>
  <outline>
    <contour>
      <point x="113" y="337" type="line"/>
      <point x="464" y="337" type="line"/>
      <point x="464" y="362" type="line"/>
      <point x="113" y="362" type="line"/>
    </contour>
    <component base="so-ethiopic"/>
  </outline>
</glyph>
<glyph name="ddhee-ethiopic" format="2">
  <advance width="639"/>
  <unicode hex="AB0C"/>
  <note>
uniAB0C
</note>
  <anchor x="319" y="773" name="top"/>
  <outline>
    <contour>
      <point x="177" y="508" type="line"/>
      <point x="465" y="508" type="line"/>
      <point x="465" y="533" type="line"/>
      <point x="177" y="533" type="line"/>
    </contour>
    <component base="ddee-ethiopic"/>
  </outline>
</glyph>
<glyph name="ddho-ethiopic" format="2">
  <advance width="649"/>
  <unicode hex="AB0E"/>
  <note>
uniAB0E
</note>
  <anchor x="327" y="830" name="top"/>
  <outline>
    <contour>
      <point x="201" y="568" type="line"/>
      <point x="489" y="568" type="line"/>
      <point x="489" y="593" type="line"/>
      <point x="201" y="593" type="line"/>
    </contour>
    <component base="ddo-ethiopic"/>
  </outline>
</glyph>
<glyph name="tenMed-ethiopic" format="2">
  <advance width="350"/>
  <note>
uni1372
</note>
  <outline>
    <contour>
      <point x="-20" y="748" type="line"/>
      <point x="370" y="748" type="line"/>
      <point x="370" y="773" type="line"/>
      <point x="-20" y="773" type="line"/>
    </contour>
    <contour>
      <point x="-20" y="0" type="line"/>
      <point x="370" y="0" type="line"/>
      <point x="370" y="25" type="line"/>
      <point x="-20" y="25" type="line"/>
    </contour>
    <component base="tenform" xOffset="54"/>
  </outline>
</glyph>
<glyph name="thirtyIni-ethiopic" format="2">
  <advance width="637"/>
  <note>
uni1374
</note>
  <outline>
    <contour>
      <point x="180" y="748" type="line"/>
      <point x="657" y="748" type="line"/>
      <point x="657" y="773" type="line"/>
      <point x="180" y="773" type="line"/>
    </contour>
    <contour>
      <point x="180" y="0" type="line"/>
      <point x="657" y="0" type="line"/>
      <point x="657" y="25" type="line"/>
      <point x="180" y="25" type="line"/>
    </contour>
    <component base="thirtyform" xOffset="-20"/>
    <component base="leftsingleflag" xOffset="5" yOffset="386"/>
    <component base="leftsingleflag" yOffset="-362"/>
  </outline>
</glyph>
